<svg width="74" height="74" viewBox="0 0 74 74" fill="none" xmlns="http://www.w3.org/2000/svg">
<path d="M74 0L37 37L0 74V41L41 0H74Z" fill="#D22856"/>
<path d="M27.953 37.1891L27.0201 38.122L21.9979 36.9184L23.1725 41.9697L22.2976 42.8446L20.9683 36.8072L15.395 35.6133L16.3086 34.6997L20.8909 35.7535L19.8469 31.1614L20.7169 30.2914L21.9012 35.8453L27.953 37.1891ZM21.9012 29.1071L22.6698 28.3385L26.7543 32.423C26.9089 32.5777 27.0765 32.7485 27.257 32.9354C27.4342 33.1191 27.6066 33.3012 27.7742 33.4816C27.9418 33.6621 28.0916 33.828 28.2237 33.9795C28.3591 34.1277 28.4622 34.2437 28.5331 34.3275L28.5718 34.2889L26.5803 24.428L27.4842 23.5241L34.5511 30.591L33.7825 31.3596L29.7464 27.3234C29.5756 27.1526 29.3983 26.969 29.2146 26.7724C29.0277 26.5726 28.8473 26.3793 28.6733 26.1923C28.5025 26.0022 28.351 25.8314 28.2189 25.68C28.0835 25.5253 27.9788 25.4077 27.9047 25.3271L27.8612 25.3706L29.8769 35.2653L28.9681 36.174L21.9012 29.1071ZM38.6501 26.492L37.8235 27.3186L31.4817 20.9767L29.2581 23.2003L28.5331 22.4752L33.797 17.2113L34.5221 17.9363L32.3082 20.1502L38.6501 26.492Z" fill="white"/>
</svg>
